<svg xmlns="http://www.w3.org/2000/svg" viewBox="0 0 100 100">
  <defs>
    <linearGradient id="bg" x1="0%" y1="0%" x2="100%" y2="100%">
      <stop offset="0%" style="stop-color:#4F46E5"/>
      <stop offset="100%" style="stop-color:#7C3AED"/>
    </linearGradient>
  </defs>
  <!-- Background circle -->
  <circle cx="50" cy="50" r="48" fill="url(#bg)"/>
  <!-- IT text -->
  <text x="50" y="58" 
        font-family="system-ui, -apple-system, sans-serif" 
        font-size="32" 
        font-weight="700" 
        fill="white" 
        text-anchor="middle">
    IT
  </text>
  <!-- Small job icon (briefcase) -->
  <path d="M30 70 h40 a3 3 0 0 1 3 3 v10 a3 3 0 0 1 -3 3 h-40 a3 3 0 0 1 -3 -3 v-10 a3 3 0 0 1 3 -3 M40 70 v-4 a4 4 0 0 1 4 -4 h12 a4 4 0 0 1 4 4 v4" 
        fill="none" 
        stroke="white" 
        stroke-width="2.5"
        stroke-linecap="round"
        stroke-linejoin="round"
        transform="scale(0.35) translate(95, 45)"/>
</svg>